# Blender v2.79 (sub 0) OBJ File: 'bloc-normal.blend'
# www.blender.org
mtllib bloc-normal.mtl
o Cube
v 1.500000 0.000000 1.500000
v -1.500000 -0.000000 1.500000
v 1.500000 -3.000000 1.500000
v -1.500000 -3.000000 1.500000
v 1.500000 0.000000 -1.500000
v -1.500000 -0.000000 -1.500000
v 1.500000 -3.000000 -1.500000
v -1.500000 -3.000000 -1.500000
vt 0.250043 0.500000
vt 0.000087 0.500000
vt 0.000087 0.250043
vt 0.250043 0.250043
vt 0.000087 0.000087
vt 0.250043 0.000087
vt 0.500000 0.250043
vt 0.749957 0.250043
vt 0.749957 0.500000
vt 0.500000 0.500000
vt 0.250043 0.749956
vt 0.000087 0.749957
vt 0.999914 0.250043
vt 0.999913 0.500000
vn 0.0000 -0.0000 1.0000
vn 0.0000 -1.0000 0.0000
vn 0.0000 -0.0000 -1.0000
vn -0.0000 1.0000 -0.0000
vn 1.0000 0.0000 -0.0000
vn -1.0000 -0.0000 0.0000
usemtl Material
s off
f 1/1/1 2/2/1 4/3/1 3/4/1
f 3/4/2 4/3/2 8/5/2 7/6/2
f 7/7/3 8/8/3 6/9/3 5/10/3
f 5/11/4 6/12/4 2/2/4 1/1/4
f 3/4/5 7/7/5 5/10/5 1/1/5
f 8/8/6 4/13/6 2/14/6 6/9/6
