# Blender v2.79 (sub 0) OBJ File: ''
# www.blender.org
mtllib leftObstacle.mtl
o Cube.004
v 0.394770 -0.100000 0.500000
v 0.250000 -0.100000 -0.500000
v 0.500000 -0.100000 -0.500000
v 0.500000 -0.100000 0.500000
v 0.394771 0.100000 0.500000
v 0.500000 0.100000 0.500000
v 0.500000 0.100000 -0.500000
v 0.250000 0.100000 -0.500000
v -0.500000 -0.100000 0.500000
v -0.500000 0.100000 0.500000
v -0.500000 0.100000 -0.500000
v -0.500000 -0.100000 -0.500000
v -0.394771 -0.100000 0.500000
v -0.394771 0.100000 0.500000
v 0.000000 -0.100000 0.039729
v 0.000000 0.100000 0.039729
v -0.250000 0.100000 -0.500000
v -0.250000 -0.100000 -0.500000
v 0.000000 0.100000 -0.500000
v 0.000000 -0.100000 -0.500000
vn -0.0000 -1.0000 -0.0000
vn 0.0000 1.0000 0.0000
vn -1.0000 0.0000 0.0000
vn 0.0000 0.0000 -1.0000
vn 1.0000 0.0000 0.0000
vn 0.0000 0.0000 1.0000
vn 0.7591 0.0000 0.6510
vn -0.7591 0.0000 0.6510
usemtl Material.001
s 1
f 1//1 2//1 3//1 4//1
f 5//2 6//2 7//2 8//2
f 9//3 10//3 11//3 12//3
f 2//4 8//4 7//4 3//4
f 3//5 7//5 6//5 4//5
f 5//6 1//6 4//6 6//6
f 10//6 9//6 13//6 14//6
f 14//7 13//7 15//7 16//7
f 16//8 15//8 1//8 5//8
f 12//4 11//4 17//4 18//4
f 18//4 17//4 19//4 20//4
f 20//4 19//4 8//4 2//4
f 10//2 14//2 17//2 11//2
f 14//2 16//2 19//2 17//2
f 16//2 5//2 8//2 19//2
f 9//1 12//1 18//1 13//1
f 13//1 18//1 20//1 15//1
f 15//1 20//1 2//1 1//1
