# Blender v2.79 (sub 0) OBJ File: ''
# www.blender.org
mtllib upObstacle.mtl
o Cube.002
v -0.166667 -0.100000 -0.500000
v -0.166667 -0.100000 0.500000
v -0.500000 -0.100000 0.500000
v -0.500000 -0.100000 -0.500000
v -0.166667 0.100000 -0.500000
v -0.500000 0.100000 -0.500000
v -0.500000 0.100000 0.500000
v -0.166667 0.100000 0.500000
v 0.500000 -0.100000 -0.500000
v 0.500000 0.100000 -0.500000
v 0.500000 0.100000 0.500000
v 0.500000 -0.100000 0.500000
v 0.166667 -0.100000 -0.500000
v 0.166667 0.100000 -0.500000
v 0.166666 0.100000 0.500000
v 0.166667 -0.100000 0.500000
v -0.166667 0.447234 0.500000
v -0.166667 0.447234 -0.500000
v 0.166667 0.447234 -0.500000
v 0.166666 0.447234 0.500000
vn 0.0000 -1.0000 -0.0000
vn 0.0000 1.0000 0.0000
vn 1.0000 0.0000 0.0000
vn 0.0000 0.0000 1.0000
vn -1.0000 0.0000 0.0000
vn 0.0000 0.0000 -1.0000
usemtl Material.001
s 1
f 1//1 2//1 3//1 4//1
f 5//2 6//2 7//2 8//2
f 9//3 10//3 11//3 12//3
f 2//4 8//4 7//4 3//4
f 3//5 7//5 6//5 4//5
f 5//6 1//6 4//6 6//6
f 10//6 9//6 13//6 14//6
f 14//6 13//6 1//6 5//6
f 12//4 11//4 15//4 16//4
f 16//4 15//4 8//4 2//4
f 10//2 14//2 15//2 11//2
f 5//5 8//5 17//5 18//5
f 9//1 12//1 16//1 13//1
f 13//1 16//1 2//1 1//1
f 19//2 18//2 17//2 20//2
f 8//4 15//4 20//4 17//4
f 14//6 5//6 18//6 19//6
f 15//3 14//3 19//3 20//3
