# Blender v2.79 (sub 0) OBJ File: ''
# www.blender.org
mtllib aimant.mtl
o Plane.001
v 0.000370 0.654461 -0.019511
v 0.000370 0.536727 -0.019511
v -0.056925 0.651359 -0.020650
v -0.041419 0.535176 -0.020342
v -0.086386 0.522768 -0.021235
v -0.131353 0.628095 -0.022128
v -0.120499 0.487098 -0.021913
v -0.216636 0.576915 -0.023823
v -0.145309 0.443672 -0.022406
v -0.258502 0.513328 -0.024654
v -0.284862 0.440436 -0.025178
v -0.145309 0.400247 -0.022406
v -0.284862 0.358238 -0.025178
v -0.136005 0.322702 -0.022221
v -0.269356 0.277591 -0.024870
v -0.106544 0.212588 -0.021636
v -0.247648 0.198495 -0.024439
v -0.063127 0.071456 -0.020773
v -0.201130 0.071456 -0.023515
v 0.057664 0.651359 -0.018373
v 0.042158 0.535176 -0.018681
v 0.087125 0.522768 -0.017788
v 0.132093 0.628095 -0.016895
v 0.121238 0.487098 -0.017110
v 0.217375 0.576915 -0.015200
v 0.146048 0.443672 -0.016617
v 0.259241 0.513328 -0.014368
v 0.285602 0.440436 -0.013845
v 0.146048 0.400247 -0.016617
v 0.285602 0.358238 -0.013845
v 0.136744 0.322702 -0.016802
v 0.270096 0.277591 -0.014153
v 0.107283 0.212588 -0.017387
v 0.248387 0.198495 -0.014584
v 0.063866 0.071456 -0.018250
v 0.201869 0.071456 -0.015508
v -0.000370 0.654461 0.017703
v -0.057664 0.651359 0.016565
v -0.000370 0.536727 0.017703
v -0.042158 0.535176 0.016873
v -0.087125 0.522768 0.015980
v -0.132093 0.628095 0.015086
v -0.121238 0.487098 0.015302
v -0.217375 0.576915 0.013392
v -0.146048 0.443672 0.014809
v -0.259241 0.513328 0.012560
v -0.285602 0.440436 0.012036
v -0.146048 0.400247 0.014809
v -0.285602 0.358238 0.012036
v -0.136744 0.322702 0.014994
v -0.270096 0.277591 0.012344
v -0.107283 0.212588 0.015579
v -0.248387 0.198495 0.012776
v -0.063866 0.071456 0.016442
v -0.201869 0.071456 0.013700
v 0.056925 0.651359 0.018841
v 0.041419 0.535176 0.018533
v 0.086386 0.522768 0.019427
v 0.131353 0.628095 0.020320
v 0.120499 0.487098 0.020104
v 0.216636 0.576915 0.022014
v 0.145309 0.443672 0.020597
v 0.258502 0.513328 0.022846
v 0.284862 0.440436 0.023370
v 0.145309 0.400247 0.020597
v 0.284862 0.358238 0.023370
v 0.136005 0.322702 0.020413
v 0.269356 0.277591 0.023062
v 0.106544 0.212588 0.019827
v 0.247648 0.198495 0.022631
v 0.063127 0.071456 0.018965
v 0.201130 0.071456 0.021706
vt 0.483614 0.043723
vt 0.486555 0.210874
vt 0.401094 0.045940
vt 0.426011 0.213999
vt 0.361088 0.232926
vt 0.293691 0.081219
vt 0.312386 0.285340
vt 0.177622 0.161507
vt 0.277334 0.348798
vt 0.111787 0.250222
vt 0.075106 0.356420
vt 0.278246 0.411735
vt 0.076832 0.475550
vt 0.293361 0.523926
vt 0.101003 0.592107
vt 0.325418 0.695860
vt 0.149256 0.708446
vt 0.404281 0.886529
vt 0.225837 0.895909
vt 0.562071 0.047669
vt 0.548097 0.210880
vt 0.615190 0.224988
vt 0.666568 0.080036
vt 0.668700 0.272962
vt 0.789621 0.149135
vt 0.709567 0.333232
vt 0.866144 0.219484
vt 0.912549 0.322356
vt 0.736017 0.396270
vt 0.921721 0.441678
vt 0.729000 0.524999
vt 0.908205 0.560479
vt 0.679065 0.673009
vt 0.885511 0.677720
vt 0.631774 0.882727
vt 0.808379 0.871648
vt 0.510586 0.041501
vt 0.426125 0.046003
vt 0.510586 0.212402
vt 0.448983 0.214653
vt 0.382694 0.232664
vt 0.316405 0.079772
vt 0.332406 0.284443
vt 0.190685 0.154064
vt 0.295833 0.347479
vt 0.128967 0.246367
vt 0.090108 0.352176
vt 0.267604 0.410514
vt 0.090108 0.471494
vt 0.281319 0.523078
vt 0.112967 0.588560
vt 0.324750 0.682918
vt 0.144968 0.703375
vt 0.408781 0.887784
vt 0.213543 0.887784
vt 0.595047 0.057623
vt 0.572188 0.210715
vt 0.638477 0.232663
vt 0.704767 0.091392
vt 0.688766 0.284443
vt 0.830487 0.175236
vt 0.725339 0.347478
vt 0.879634 0.246366
vt 0.918492 0.352176
vt 0.725339 0.410514
vt 0.931063 0.471494
vt 0.719501 0.523078
vt 0.908205 0.588560
vt 0.676070 0.682918
vt 0.876203 0.703375
vt 0.604189 0.887783
vt 0.807628 0.887784
vt 0.209537 0.567035
vt 0.198057 0.567035
vt 0.198057 0.543128
vt 0.209537 0.543128
vt 0.229474 0.695293
vt 0.213646 0.695293
vt 0.213646 0.632502
vt 0.229474 0.632502
vt 0.198057 0.519647
vt 0.209537 0.519647
vt 0.213646 0.584030
vt 0.229474 0.584030
vt 0.198057 0.488967
vt 0.209537 0.488967
vt 0.213646 0.550819
vt 0.229474 0.550819
vt 0.198057 0.464913
vt 0.209537 0.464913
vt 0.213646 0.532353
vt 0.229474 0.532353
vt 0.198057 0.447213
vt 0.209537 0.447213
vt 0.209537 0.251416
vt 0.198057 0.251416
vt 0.198058 0.209690
vt 0.209537 0.209690
vt 0.213646 0.511085
vt 0.229474 0.511085
vt 0.000000 0.000000
vt 0.000000 0.000000
vt 0.000000 0.000000
vt 0.000000 0.000000
vt 0.209537 0.276712
vt 0.198057 0.276712
vt 0.213646 0.490094
vt 0.229474 0.490094
vt 0.229474 0.272436
vt 0.213645 0.272436
vt 0.213645 0.209646
vt 0.229473 0.209646
vt 0.209537 0.302041
vt 0.198057 0.302041
vt 0.213646 0.470255
vt 0.229474 0.470255
vt 0.229474 0.320908
vt 0.213646 0.320908
vt 0.209537 0.327392
vt 0.198057 0.327392
vt 0.213646 0.452469
vt 0.229474 0.452469
vt 0.229474 0.354120
vt 0.213646 0.354120
vt 0.209537 0.351298
vt 0.198057 0.351298
vt 0.229474 0.372586
vt 0.213646 0.372586
vt 0.209537 0.374780
vt 0.198057 0.374780
vt 0.209537 0.684737
vt 0.198057 0.684737
vt 0.198057 0.643011
vt 0.209537 0.643011
vt 0.229474 0.393854
vt 0.213646 0.393854
vt 0.209537 0.405459
vt 0.198057 0.405459
vt 0.198057 0.617714
vt 0.209537 0.617714
vt 0.229474 0.414844
vt 0.213646 0.414844
vt 0.209537 0.429514
vt 0.198057 0.429514
vt 0.198057 0.592386
vt 0.209537 0.592386
vt 0.229474 0.434684
vt 0.213646 0.434684
vt 0.000000 0.000000
vt 0.000000 0.000000
vt 0.000000 0.000000
vt 0.000000 0.000000
vn 0.0199 0.0000 -0.9998
vn -0.0199 -0.0000 0.9998
vn -0.9402 0.3401 -0.0187
vn -0.9556 0.2941 -0.0190
vn -0.8350 0.5500 -0.0166
vn -0.9658 0.2585 -0.0192
vn -0.5144 0.8575 -0.0102
vn -0.9927 0.1192 -0.0197
vn -0.2982 0.9545 -0.0059
vn -0.9998 0.0000 -0.0199
vn -0.0540 0.9985 -0.0011
vn 0.9388 -0.3439 0.0186
vn -0.8681 -0.4961 -0.0172
vn 0.0000 -1.0000 -0.0000
vn 0.9641 -0.2647 0.0192
vn -0.7225 -0.6912 -0.0143
vn 0.9556 0.2941 0.0190
vn 0.9818 -0.1888 0.0195
vn -0.2659 -0.9640 -0.0053
vn 0.9658 0.2585 0.0192
vn 0.9998 0.0000 0.0199
vn -0.0371 -0.9993 -0.0007
vn 0.9927 0.1192 0.0197
vn 0.9402 0.3401 0.0187
vn 0.8350 0.5500 0.0166
vn -0.9388 -0.3439 -0.0186
vn 0.8681 -0.4961 0.0172
vn 0.5144 0.8575 0.0102
vn -0.9641 -0.2647 -0.0192
vn 0.7225 -0.6912 0.0143
vn 0.2982 0.9545 0.0059
vn -0.9818 -0.1888 -0.0195
vn 0.2659 -0.9640 0.0053
vn 0.0540 0.9985 0.0011
vn 0.0371 -0.9993 0.0007
usemtl Material.001
s 1
f 1/1/1 2/2/1 3/3/1
f 2/2/1 4/4/1 3/3/1
f 4/4/1 5/5/1 3/3/1
f 3/3/1 5/5/1 6/6/1
f 5/5/1 7/7/1 6/6/1
f 6/6/1 7/7/1 8/8/1
f 7/7/1 9/9/1 8/8/1
f 8/8/1 9/9/1 10/10/1
f 11/11/1 10/10/1 9/9/1
f 9/9/1 12/12/1 11/11/1
f 11/11/1 12/12/1 13/13/1
f 12/12/1 14/14/1 13/13/1
f 13/13/1 14/14/1 15/15/1
f 14/14/1 16/16/1 15/15/1
f 15/15/1 16/16/1 17/17/1
f 16/16/1 18/18/1 17/17/1
f 17/17/1 18/18/1 19/19/1
f 1/1/1 20/20/1 2/2/1
f 2/2/1 20/20/1 21/21/1
f 21/21/1 20/20/1 22/22/1
f 20/20/1 23/23/1 22/22/1
f 22/22/1 23/23/1 24/24/1
f 23/23/1 25/25/1 24/24/1
f 24/24/1 25/25/1 26/26/1
f 25/25/1 27/27/1 26/26/1
f 28/28/1 26/26/1 27/27/1
f 26/26/1 28/28/1 29/29/1
f 28/28/1 30/30/1 29/29/1
f 29/29/1 30/30/1 31/31/1
f 30/30/1 32/32/1 31/31/1
f 31/31/1 32/32/1 33/33/1
f 32/32/1 34/34/1 33/33/1
f 33/33/1 34/34/1 35/35/1
f 34/34/1 36/36/1 35/35/1
f 37/37/2 38/38/2 39/39/2
f 39/39/2 38/38/2 40/40/2
f 40/40/2 38/38/2 41/41/2
f 38/38/2 42/42/2 41/41/2
f 41/41/2 42/42/2 43/43/2
f 42/42/2 44/44/2 43/43/2
f 43/43/2 44/44/2 45/45/2
f 44/44/2 46/46/2 45/45/2
f 47/47/2 45/45/2 46/46/2
f 45/45/2 47/47/2 48/48/2
f 47/47/2 49/49/2 48/48/2
f 48/48/2 49/49/2 50/50/2
f 49/49/2 51/51/2 50/50/2
f 50/50/2 51/51/2 52/52/2
f 51/51/2 53/53/2 52/52/2
f 52/52/2 53/53/2 54/54/2
f 53/53/2 55/55/2 54/54/2
f 37/37/2 39/39/2 56/56/2
f 39/39/2 57/57/2 56/56/2
f 57/57/2 58/58/2 56/56/2
f 56/56/2 58/58/2 59/59/2
f 58/58/2 60/60/2 59/59/2
f 59/59/2 60/60/2 61/61/2
f 60/60/2 62/62/2 61/61/2
f 61/61/2 62/62/2 63/63/2
f 64/64/2 63/63/2 62/62/2
f 62/62/2 65/65/2 64/64/2
f 64/64/2 65/65/2 66/66/2
f 65/65/2 67/67/2 66/66/2
f 66/66/2 67/67/2 68/68/2
f 67/67/2 69/69/2 68/68/2
f 68/68/2 69/69/2 70/70/2
f 69/69/2 71/71/2 70/70/2
f 70/70/2 71/71/2 72/72/2
f 11/73/3 47/74/3 46/75/3 10/76/3
f 35/77/4 71/78/4 69/79/4 33/80/4
f 10/76/5 46/75/5 44/81/5 8/82/5
f 33/80/6 69/79/6 67/83/6 31/84/6
f 8/82/7 44/81/7 42/85/7 6/86/7
f 31/84/8 67/83/8 65/87/8 29/88/8
f 6/86/9 42/85/9 38/89/9 3/90/9
f 29/88/10 65/87/10 62/91/10 26/92/10
f 3/90/11 38/89/11 37/93/11 1/94/11
f 34/95/12 70/96/12 72/97/12 36/98/12
f 26/92/13 62/91/13 60/99/13 24/100/13
f 18/101/14 54/102/14 55/103/14 19/104/14
f 32/105/15 68/106/15 70/96/15 34/95/15
f 24/100/16 60/99/16 58/107/16 22/108/16
f 16/109/17 52/110/17 54/111/17 18/112/17
f 30/113/18 66/114/18 68/106/18 32/105/18
f 22/108/19 58/107/19 57/115/19 21/116/19
f 14/117/20 50/118/20 52/110/20 16/109/20
f 28/119/21 64/120/21 66/114/21 30/113/21
f 21/116/22 57/115/22 39/121/22 2/122/22
f 12/123/23 48/124/23 50/118/23 14/117/23
f 27/125/24 63/126/24 64/120/24 28/119/24
f 9/127/21 45/128/21 48/124/21 12/123/21
f 25/129/25 61/130/25 63/126/25 27/125/25
f 19/131/26 55/132/26 53/133/26 17/134/26
f 7/135/27 43/136/27 45/128/27 9/127/27
f 23/137/28 59/138/28 61/130/28 25/129/28
f 17/134/29 53/133/29 51/139/29 15/140/29
f 5/141/30 41/142/30 43/136/30 7/135/30
f 20/143/31 56/144/31 59/138/31 23/137/31
f 15/140/32 51/139/32 49/145/32 13/146/32
f 4/147/33 40/148/33 41/142/33 5/141/33
f 1/94/34 37/93/34 56/144/34 20/143/34
f 13/146/10 49/145/10 47/74/10 11/73/10
f 2/122/35 39/121/35 40/148/35 4/147/35
f 36/149/14 72/150/14 71/151/14 35/152/14
