# Blender v2.79 (sub 0) OBJ File: 'Bouclier-sans.blend'
# www.blender.org
mtllib aimant.mtl
o Plane.001
v -0.246077 0.198495 -0.037367
v -0.199671 0.071456 -0.034010
v -0.267733 0.277591 -0.038934
v -0.283201 0.358238 -0.040053
v -0.283201 0.440436 -0.040053
v -0.256905 0.513328 -0.038151
v -0.215140 0.576915 -0.035129
v -0.130062 0.628095 -0.028974
v -0.055813 0.651359 -0.023602
v -0.062001 0.071456 -0.024050
v -0.105313 0.212588 -0.027183
v -0.134703 0.322702 -0.029310
v -0.143984 0.400247 -0.029981
v -0.143984 0.443672 -0.029981
v -0.119234 0.487098 -0.028190
v -0.085203 0.522768 -0.025728
v -0.040345 0.535176 -0.022483
v 0.248763 0.198495 -0.001566
v 0.202357 0.071456 -0.004923
v 0.270419 0.277591 0.000001
v 0.285887 0.358238 0.001120
v 0.285887 0.440436 0.001120
v 0.259591 0.513328 -0.000782
v 0.217826 0.576915 -0.003804
v 0.132748 0.628095 -0.009959
v 0.058499 0.651359 -0.015331
v 0.001343 0.654461 -0.019467
v 0.064687 0.071456 -0.014884
v 0.107999 0.212588 -0.011750
v 0.137389 0.322702 -0.009624
v 0.146670 0.400247 -0.008952
v 0.146670 0.443672 -0.008952
v 0.121920 0.487098 -0.010743
v 0.087889 0.522768 -0.013205
v 0.043030 0.535176 -0.016451
v 0.001343 0.536727 -0.019467
v -0.248763 0.198495 -0.000243
v -0.202357 0.071456 0.003115
v -0.270419 0.277591 -0.001809
v -0.285887 0.358238 -0.002928
v -0.285887 0.440436 -0.002928
v -0.259591 0.513328 -0.001026
v -0.217826 0.576915 0.001996
v -0.132748 0.628095 0.008151
v -0.058499 0.651359 0.013523
v -0.064687 0.071456 0.013075
v -0.107999 0.212588 0.009942
v -0.137389 0.322702 0.007815
v -0.146670 0.400247 0.007144
v -0.146670 0.443672 0.007144
v -0.121920 0.487098 0.008935
v -0.087889 0.522768 0.011397
v -0.043031 0.535176 0.014642
v 0.246077 0.198495 0.035559
v 0.199671 0.071456 0.032202
v 0.267733 0.277591 0.037126
v 0.283201 0.358238 0.038245
v 0.283201 0.440436 0.038245
v 0.256905 0.513328 0.036343
v 0.215140 0.576915 0.033321
v 0.130062 0.628095 0.027166
v 0.055813 0.651359 0.021794
v -0.001343 0.654461 0.017658
v 0.062001 0.071456 0.022241
v 0.105313 0.212588 0.025375
v 0.134703 0.322702 0.027501
v 0.143984 0.400247 0.028173
v 0.143984 0.443672 0.028173
v 0.119234 0.487098 0.026382
v 0.085203 0.522768 0.023920
v 0.040344 0.535176 0.020674
v -0.001343 0.536727 0.017658
vt 0.000000 0.000000
vt 0.000000 0.000000
vt 0.000000 0.000000
vt 0.000000 0.000000
vt 0.000000 0.000000
vt 0.000000 0.000000
vt 0.000000 0.000000
vt 0.000000 0.000000
vt 0.000000 0.000000
vt 0.000000 0.000000
vt 0.000000 0.000000
vt 0.000000 0.000000
vt 0.000000 0.000000
vt 0.000000 0.000000
vt 0.000000 0.000000
vt 0.000000 0.000000
vt 0.000000 0.000000
vt 0.000000 0.000000
vt 0.000000 0.000000
vt 0.000000 0.000000
vt 0.000000 0.000000
vt 0.000000 0.000000
vt 0.000000 0.000000
vt 0.000000 0.000000
vt 0.000000 0.000000
vt 0.000000 0.000000
vt 0.000000 0.000000
vt 0.000000 0.000000
vt 0.000000 0.000000
vt 0.000000 0.000000
vt 0.000000 0.000000
vt 0.000000 0.000000
vt 0.000000 0.000000
vt 0.000000 0.000000
vt 0.000000 0.000000
vt 0.000000 0.000000
vt 0.510586 0.041501
vt 0.426125 0.046003
vt 0.510586 0.212402
vt 0.448983 0.214653
vt 0.382694 0.232664
vt 0.316405 0.079772
vt 0.332406 0.284443
vt 0.190685 0.154064
vt 0.295833 0.347479
vt 0.128967 0.246367
vt 0.090108 0.352176
vt 0.267604 0.410514
vt 0.090108 0.471494
vt 0.281319 0.523078
vt 0.112967 0.588560
vt 0.324750 0.682918
vt 0.144968 0.703375
vt 0.408781 0.887784
vt 0.213543 0.887784
vt 0.595047 0.057623
vt 0.572188 0.210715
vt 0.638477 0.232663
vt 0.704767 0.091392
vt 0.688766 0.284443
vt 0.830487 0.175236
vt 0.725339 0.347478
vt 0.879634 0.246366
vt 0.918492 0.352176
vt 0.725339 0.410514
vt 0.931063 0.471494
vt 0.719501 0.523078
vt 0.908205 0.588560
vt 0.676070 0.682918
vt 0.876203 0.703375
vt 0.604189 0.887783
vt 0.807628 0.887784
vt 0.000000 0.000000
vt 0.000000 0.000000
vt 0.000000 0.000000
vt 0.000000 0.000000
vt 0.000000 0.000000
vt 0.000000 0.000000
vt 0.000000 0.000000
vt 0.000000 0.000000
vt 0.000000 0.000000
vt 0.000000 0.000000
vt 0.000000 0.000000
vt 0.000000 0.000000
vt 0.000000 0.000000
vt 0.000000 0.000000
vt 0.000000 0.000000
vt 0.000000 0.000000
vt 0.000000 0.000000
vt 0.000000 0.000000
vt 0.000000 0.000000
vt 0.000000 0.000000
vt 0.000000 0.000000
vt 0.000000 0.000000
vt 0.000000 0.000000
vt 0.000000 0.000000
vt 0.000000 0.000000
vt 0.000000 0.000000
vt 0.000000 0.000000
vt 0.000000 0.000000
vt 0.000000 0.000000
vt 0.000000 0.000000
vt 0.000000 0.000000
vt 0.000000 0.000000
vt 0.000000 0.000000
vt 0.000000 0.000000
vt 0.000000 0.000000
vt 0.000000 0.000000
vn 0.0722 0.0000 -0.9974
vn -0.0722 0.0000 0.9974
vn -0.9379 0.3401 -0.0679
vn -0.9533 0.2941 -0.0690
vn -0.8330 0.5500 -0.0603
vn -0.9635 0.2585 -0.0697
vn -0.5132 0.8575 -0.0371
vn -0.9903 0.1191 -0.0716
vn -0.2975 0.9545 -0.0215
vn -0.9974 0.0000 -0.0722
vn -0.0539 0.9985 -0.0039
vn 0.9366 -0.3439 0.0678
vn -0.8660 -0.4961 -0.0627
vn 0.0000 -1.0000 0.0000
vn 0.9618 -0.2647 0.0696
vn -0.7208 -0.6912 -0.0521
vn 0.9533 0.2941 0.0690
vn 0.9794 -0.1888 0.0709
vn -0.2652 -0.9640 -0.0192
vn 0.9635 0.2585 0.0697
vn 0.9974 0.0000 0.0722
vn -0.0370 -0.9993 -0.0027
vn 0.9903 0.1191 0.0716
vn 0.9379 0.3401 0.0679
vn 0.8330 0.5500 0.0603
vn -0.9366 -0.3439 -0.0678
vn 0.8660 -0.4961 0.0627
vn 0.5132 0.8575 0.0371
vn -0.9618 -0.2647 -0.0696
vn 0.7208 -0.6912 0.0521
vn 0.2975 0.9545 0.0215
vn -0.9794 -0.1888 -0.0709
vn 0.2652 -0.9640 0.0192
vn 0.0539 0.9985 0.0039
vn 0.0370 -0.9993 0.0027
usemtl Material.001
s off
f 27/1/1 36/2/1 9/3/1
f 36/2/1 17/4/1 9/3/1
f 17/4/1 16/5/1 9/3/1
f 9/3/1 16/5/1 8/6/1
f 16/5/1 15/7/1 8/6/1
f 8/6/1 15/7/1 7/8/1
f 15/7/1 14/9/1 7/8/1
f 7/8/1 14/9/1 6/10/1
f 5/11/1 6/10/1 14/9/1
f 14/9/1 13/12/1 5/11/1
f 5/11/1 13/12/1 4/13/1
f 13/12/1 12/14/1 4/13/1
f 4/13/1 12/14/1 3/15/1
f 12/14/1 11/16/1 3/15/1
f 3/15/1 11/16/1 1/17/1
f 11/16/1 10/18/1 1/17/1
f 1/17/1 10/18/1 2/19/1
f 27/1/1 26/20/1 36/2/1
f 36/2/1 26/20/1 35/21/1
f 35/21/1 26/20/1 34/22/1
f 26/20/1 25/23/1 34/22/1
f 34/22/1 25/23/1 33/24/1
f 25/23/1 24/25/1 33/24/1
f 33/24/1 24/25/1 32/26/1
f 24/25/1 23/27/1 32/26/1
f 22/28/1 32/26/1 23/27/1
f 32/26/1 22/28/1 31/29/1
f 22/28/1 21/30/1 31/29/1
f 31/29/1 21/30/1 30/31/1
f 21/30/1 20/32/1 30/31/1
f 30/31/1 20/32/1 29/33/1
f 20/32/1 18/34/1 29/33/1
f 29/33/1 18/34/1 28/35/1
f 18/34/1 19/36/1 28/35/1
f 63/37/2 45/38/2 72/39/2
f 72/39/2 45/38/2 53/40/2
f 53/40/2 45/38/2 52/41/2
f 45/38/2 44/42/2 52/41/2
f 52/41/2 44/42/2 51/43/2
f 44/42/2 43/44/2 51/43/2
f 51/43/2 43/44/2 50/45/2
f 43/44/2 42/46/2 50/45/2
f 41/47/2 50/45/2 42/46/2
f 50/45/2 41/47/2 49/48/2
f 41/47/2 40/49/2 49/48/2
f 49/48/2 40/49/2 48/50/2
f 40/49/2 39/51/2 48/50/2
f 48/50/2 39/51/2 47/52/2
f 39/51/2 37/53/2 47/52/2
f 47/52/2 37/53/2 46/54/2
f 37/53/2 38/55/2 46/54/2
f 63/37/2 72/39/2 62/56/2
f 72/39/2 71/57/2 62/56/2
f 71/57/2 70/58/2 62/56/2
f 62/56/2 70/58/2 61/59/2
f 70/58/2 69/60/2 61/59/2
f 61/59/2 69/60/2 60/61/2
f 69/60/2 68/62/2 60/61/2
f 60/61/2 68/62/2 59/63/2
f 58/64/2 59/63/2 68/62/2
f 68/62/2 67/65/2 58/64/2
f 58/64/2 67/65/2 57/66/2
f 67/65/2 66/67/2 57/66/2
f 57/66/2 66/67/2 56/68/2
f 66/67/2 65/69/2 56/68/2
f 56/68/2 65/69/2 54/70/2
f 65/69/2 64/71/2 54/70/2
f 54/70/2 64/71/2 55/72/2
f 5/11/3 41/73/3 42/74/3 6/10/3
f 28/35/4 64/75/4 65/76/4 29/33/4
f 6/10/5 42/74/5 43/77/5 7/8/5
f 29/33/6 65/76/6 66/78/6 30/31/6
f 7/8/7 43/77/7 44/79/7 8/6/7
f 30/31/8 66/78/8 67/80/8 31/29/8
f 8/6/9 44/79/9 45/81/9 9/3/9
f 31/29/10 67/80/10 68/82/10 32/26/10
f 9/3/11 45/81/11 63/83/11 27/1/11
f 18/34/12 54/84/12 55/85/12 19/36/12
f 32/26/13 68/82/13 69/86/13 33/24/13
f 10/18/14 46/87/14 38/88/14 2/19/14
f 20/32/15 56/89/15 54/84/15 18/34/15
f 33/24/16 69/86/16 70/90/16 34/22/16
f 11/16/17 47/91/17 46/87/17 10/18/17
f 21/30/18 57/92/18 56/89/18 20/32/18
f 34/22/19 70/90/19 71/93/19 35/21/19
f 12/14/20 48/94/20 47/91/20 11/16/20
f 22/28/21 58/95/21 57/92/21 21/30/21
f 35/21/22 71/93/22 72/96/22 36/2/22
f 13/12/23 49/97/23 48/94/23 12/14/23
f 23/27/24 59/98/24 58/95/24 22/28/24
f 14/9/21 50/99/21 49/97/21 13/12/21
f 24/25/25 60/100/25 59/98/25 23/27/25
f 2/19/26 38/88/26 37/101/26 1/17/26
f 15/7/27 51/102/27 50/99/27 14/9/27
f 25/23/28 61/103/28 60/100/28 24/25/28
f 1/17/29 37/101/29 39/104/29 3/15/29
f 16/5/30 52/105/30 51/102/30 15/7/30
f 26/20/31 62/106/31 61/103/31 25/23/31
f 3/15/32 39/104/32 40/107/32 4/13/32
f 17/4/33 53/108/33 52/105/33 16/5/33
f 27/1/34 63/83/34 62/106/34 26/20/34
f 4/13/10 40/107/10 41/73/10 5/11/10
f 36/2/35 72/96/35 53/108/35 17/4/35
f 19/36/14 55/85/14 64/75/14 28/35/14
