# Blender v2.79 (sub 0) OBJ File: 'bloc-bleu.blend'
# www.blender.org
mtllib bloc-bleu.mtl
o Plane
v -1.500000 -0.170392 -1.500000
v -1.500000 -0.170392 1.500000
v 1.500000 -0.170392 -1.500000
v 1.500000 -0.170392 1.500000
v 1.500000 -0.065479 -1.500000
v -1.500000 -0.065479 -1.500000
v -1.500000 -0.065479 1.500000
v 1.500000 -0.065479 1.500000
vt 0.088827 0.465364
vt 0.088943 0.127986
vt 0.426321 0.128102
vt 0.426205 0.465480
vt 0.635008 0.987547
vt 0.635008 0.670991
vt 0.951564 0.670991
vt 0.951564 0.987547
vt -0.000217 0.555821
vt 0.492873 0.555820
vt 0.492873 0.573064
vt -0.000217 0.573064
vt 0.493306 0.573455
vt 0.000212 0.573455
vt 0.000212 0.556211
vt 0.493306 0.556211
vt 0.493734 0.555229
vt 0.000643 0.555059
vt 0.000649 0.537815
vt 0.493740 0.537986
vt 0.000883 0.537338
vt 0.493976 0.537338
vt 0.493976 0.554582
vt 0.000883 0.554581
vn 0.0000 -1.0000 0.0000
vn 0.0000 1.0000 0.0000
vn -0.0000 0.0000 1.0000
vn 0.0000 0.0000 -1.0000
vn 1.0000 0.0000 0.0000
vn -1.0000 0.0000 -0.0000
usemtl None
s off
f 1/1/1 3/2/1 4/3/1 2/4/1
f 6/5/2 7/6/2 8/7/2 5/8/2
f 2/9/3 4/10/3 8/11/3 7/12/3
f 3/13/4 1/14/4 6/15/4 5/16/4
f 4/17/5 3/18/5 5/19/5 8/20/5
f 1/21/6 2/22/6 7/23/6 6/24/6
