# Blender v2.79 (sub 0) OBJ File: ''
# www.blender.org
mtllib bonusX2.mtl
o Cube
v 0.061290 -0.000000 0.270989
v 0.061290 -0.086677 0.357665
v -0.061290 -0.086677 0.357665
v -0.061290 0.000000 0.270989
v 0.061290 0.086677 0.357665
v 0.061290 -0.000000 0.444342
v -0.061290 0.000000 0.444342
v -0.061290 0.086677 0.357665
v 0.061290 -0.130658 0.140330
v 0.061290 -0.217335 0.227007
v -0.061290 -0.217335 0.227007
v -0.061290 -0.130658 0.140331
v 0.061290 0.217335 0.488323
v -0.061290 0.217335 0.488323
v -0.061290 0.130658 0.575000
v 0.061290 0.130658 0.575000
v 0.061289 -0.217335 0.488323
v 0.061289 -0.130658 0.575000
v -0.061290 -0.130658 0.575000
v -0.061290 -0.217335 0.488323
v 0.061290 0.217335 0.227007
v 0.061290 0.130658 0.140331
v -0.061290 0.130658 0.140331
v -0.061290 0.217335 0.227007
v 0.100000 -0.213182 -0.332655
v 0.100000 -0.354603 -0.332655
v -0.100000 -0.354603 -0.332655
v -0.100000 -0.213182 -0.332655
v 0.100000 -0.354603 0.140015
v 0.100000 -0.213182 0.140015
v -0.100000 -0.354603 0.140015
v -0.100000 -0.213182 0.140015
v 0.100000 -0.213182 -0.020823
v -0.100000 -0.213182 -0.020823
v -0.100000 -0.354603 0.023785
v 0.100000 -0.354603 0.023785
v 0.100000 0.041965 -0.121812
v -0.100000 0.041965 -0.121812
v 0.100000 0.041965 -0.282650
v -0.100000 0.041965 -0.282650
v 0.100000 0.075095 -0.157594
v -0.100000 0.075095 -0.157594
v 0.100000 0.130105 -0.308732
v -0.100000 0.130105 -0.308732
v 0.100000 0.118465 -0.179887
v -0.100000 0.118466 -0.179887
v 0.100000 0.221850 -0.303096
v -0.100000 0.221851 -0.303096
v 0.100000 0.166845 -0.186002
v -0.100000 0.166845 -0.186002
v 0.100000 0.306135 -0.266421
v -0.100000 0.306135 -0.266421
v 0.100000 0.214398 -0.175201
v -0.100000 0.214398 -0.175201
v 0.100000 0.372793 -0.203130
v -0.100000 0.372793 -0.203130
v 0.100000 0.255390 -0.148787
v -0.100000 0.255390 -0.148787
v 0.100000 0.413785 -0.120858
v -0.100000 0.413785 -0.120858
v 0.100000 0.284875 -0.109947
v -0.100000 0.284875 -0.109947
v 0.100000 0.424166 -0.029528
v -0.100000 0.424166 -0.029528
v 0.100000 0.299298 -0.063364
v -0.100000 0.299298 -0.063364
v 0.100000 0.402683 0.059845
v -0.100000 0.402683 0.059845
v 0.100000 0.296919 -0.014658
v -0.100000 0.296919 -0.014658
v 0.100000 0.351929 0.136481
v -0.100000 0.351929 0.136481
v 0.100000 0.236477 0.056005
v -0.100000 0.236476 0.056005
v 0.100000 0.319574 0.165429
v -0.100000 0.319574 0.165429
vt 0.409557 0.068066
vt 0.382458 0.095165
vt 0.355359 0.068066
vt 0.382458 0.040967
vt 0.340893 0.291500
vt 0.379216 0.291500
vt 0.379216 0.329824
vt 0.340893 0.329824
vt 0.524471 0.537443
vt 0.486147 0.537443
vt 0.486147 0.499119
vt 0.524471 0.499119
vt 0.423307 0.000118
vt 0.450406 0.027217
vt 0.428377 0.499119
vt 0.428378 0.537443
vt 0.283123 0.329824
vt 0.283123 0.291500
vt 0.582241 0.537443
vt 0.582241 0.499119
vt 0.178421 0.537443
vt 0.178421 0.499119
vt 0.216745 0.499119
vt 0.216745 0.537443
vt 0.120652 0.499119
vt 0.120652 0.537443
vt 0.436986 0.291500
vt 0.436986 0.329824
vt 0.274515 0.537443
vt 0.274514 0.499119
vt 0.341609 0.136014
vt 0.314510 0.108915
vt 0.370608 0.537443
vt 0.332284 0.537443
vt 0.332284 0.499119
vt 0.370608 0.499119
vt 0.314510 0.027217
vt 0.341609 0.000118
vt 0.340893 0.233731
vt 0.379216 0.233731
vt 0.678334 0.537443
vt 0.640010 0.537443
vt 0.640010 0.499119
vt 0.678334 0.499119
vt 0.450406 0.108915
vt 0.423307 0.136014
vt 0.379216 0.387594
vt 0.340893 0.387594
vt 0.062882 0.537443
vt 0.062882 0.499119
vt 0.062646 0.000118
vt 0.062646 0.044332
vt 0.000118 0.044332
vt 0.000118 0.000118
vt 0.062646 0.236324
vt 0.000118 0.236324
vt 0.000118 0.192109
vt 0.062646 0.192109
vt 0.062646 0.350621
vt 0.000118 0.350621
vt 0.062646 0.155771
vt 0.000118 0.155771
vt 0.298069 0.099861
vt 0.314274 0.132386
vt 0.274700 0.152104
vt 0.252275 0.107096
vt 0.129220 0.324425
vt 0.087295 0.352191
vt 0.062882 0.315328
vt 0.093179 0.295263
vt 0.210503 0.270594
vt 0.186089 0.233731
vt 0.248372 0.000118
vt 0.208798 0.019835
vt 0.000118 0.999882
vt 0.000118 0.902390
vt 0.062646 0.902390
vt 0.062646 0.999882
vt 0.062646 0.788092
vt 0.000118 0.788092
vt 0.000118 0.759355
vt 0.062646 0.759355
vt 0.241514 0.345733
vt 0.199590 0.373499
vt 0.166796 0.114410
vt 0.144372 0.069402
vt 0.214636 0.375957
vt 0.263528 0.364205
vt 0.277897 0.389093
vt 0.227934 0.383414
vt 0.152537 0.109016
vt 0.116070 0.074393
vt 0.062646 0.365867
vt 0.000118 0.365867
vt 0.091183 0.088761
vt 0.137292 0.108825
vt 0.122901 0.113859
vt 0.072711 0.110776
vt 0.062646 0.381113
vt 0.000118 0.381113
vt 0.000118 0.730617
vt 0.062646 0.730617
vt 0.062646 0.701879
vt 0.000118 0.701879
vt 0.000118 0.673142
vt 0.062646 0.673142
vt 0.062646 0.396359
vt 0.000118 0.396359
vt 0.282888 0.417394
vt 0.237880 0.394969
vt 0.062882 0.137780
vt 0.111100 0.123512
vt 0.103312 0.136618
vt 0.062882 0.166518
vt 0.277897 0.445695
vt 0.243274 0.409229
vt 0.062646 0.411605
vt 0.000118 0.411605
vt 0.100476 0.151598
vt 0.072711 0.193523
vt 0.062646 0.426851
vt 0.000118 0.426851
vt 0.000118 0.644404
vt 0.062646 0.644404
vt 0.263529 0.470583
vt 0.243465 0.424474
vt 0.062646 0.615666
vt 0.000118 0.615666
vt 0.000118 0.586929
vt 0.062646 0.586929
vt 0.062646 0.442097
vt 0.000118 0.442097
vt 0.241514 0.489055
vt 0.238431 0.438864
vt 0.091183 0.215537
vt 0.102935 0.166644
vt 0.110392 0.179942
vt 0.116071 0.229906
vt 0.214510 0.498884
vt 0.228778 0.450666
vt 0.062646 0.457343
vt 0.000118 0.457343
vt 0.000118 0.472589
vt 0.062646 0.472589
vt 0.062646 0.501660
vt 0.000118 0.501660
vt 0.000118 0.558191
vt 0.062646 0.558191
vt 0.185772 0.498884
vt 0.215672 0.458454
vt 0.000118 0.544617
vt 0.062646 0.544617
vt 0.172641 0.495447
vt 0.186818 0.454897
vt 0.137158 0.191289
vt 0.129161 0.233495
vn 1.0000 -0.0000 0.0000
vn -1.0000 0.0000 -0.0000
vn -0.0000 -0.7071 -0.7071
vn -0.0000 -0.7071 0.7071
vn 0.0000 0.7071 -0.7071
vn -0.0000 0.7071 0.7071
vn 0.0000 0.0000 -1.0000
vn 0.0000 0.0000 1.0000
vn 0.0000 0.7162 0.6979
vn -0.0000 -1.0000 0.0000
vn 0.0000 1.0000 0.0000
vn -0.0000 -0.2838 -0.9589
vn -0.0000 -0.7162 -0.6979
vn 0.0000 0.7338 0.6794
vn 0.0000 0.4572 0.8894
vn 0.0000 0.0613 -0.9981
vn 0.0000 0.6886 -0.7252
vn -0.0000 0.1254 0.9921
vn 0.0000 0.3990 -0.9170
vn 0.0000 -0.2215 0.9752
vn 0.0000 -0.5417 0.8406
vn 0.0000 0.8951 -0.4460
vn 0.0000 0.9723 0.2337
vn 0.0000 -0.7965 0.6047
vn 0.0000 0.9936 -0.1129
vn 0.0000 -0.9553 0.2958
vn 0.0000 -0.7599 -0.6500
vn 0.0000 -0.9988 -0.0488
vn 0.0000 0.8337 0.5522
vn 0.0000 -0.7964 0.6048
vn 0.0000 0.6668 0.7453
usemtl Material
s off
f 1/1/1 5/2/1 6/3/1 2/4/1
f 3/5/2 7/6/2 8/7/2 4/8/2
f 9/9/3 10/10/3 11/11/3 12/12/3
f 2/4/1 10/13/1 9/14/1 1/1/1
f 3/15/4 11/11/4 10/10/4 2/16/4
f 4/8/2 12/17/2 11/18/2 3/5/2
f 1/19/5 9/9/5 12/12/5 4/20/5
f 13/21/6 14/22/6 15/23/6 16/24/6
f 8/25/5 14/22/5 13/21/5 5/26/5
f 7/6/2 15/27/2 14/28/2 8/7/2
f 6/29/4 16/24/4 15/23/4 7/30/4
f 5/2/1 13/31/1 16/32/1 6/3/1
f 17/33/4 18/34/4 19/35/4 20/36/4
f 6/3/1 18/37/1 17/38/1 2/4/1
f 7/30/6 19/35/6 18/34/6 6/29/6
f 3/5/2 20/39/2 19/40/2 7/6/2
f 2/16/3 17/33/3 20/36/3 3/15/3
f 21/41/5 22/42/5 23/43/5 24/44/5
f 1/1/1 22/45/1 21/46/1 5/2/1
f 4/20/3 23/43/3 22/42/3 1/19/3
f 8/7/2 24/47/2 23/48/2 4/8/2
f 5/26/6 21/49/6 24/50/6 8/25/6
f 25/51/7 26/52/7 27/53/7 28/54/7
f 30/55/8 32/56/8 31/57/8 29/58/8
f 32/56/9 30/55/9 37/59/9 38/60/9
f 36/61/10 29/58/10 31/57/10 35/62/10
f 35/63/2 31/64/2 32/65/2 34/66/2
f 33/67/1 30/68/1 29/69/1 36/70/1
f 25/71/1 33/67/1 36/70/1 26/72/1
f 27/73/2 35/63/2 34/66/2 28/74/2
f 26/52/10 36/61/10 35/62/10 27/53/10
f 28/75/11 34/76/11 33/77/11 25/78/11
f 39/79/12 40/80/12 44/81/12 43/82/12
f 30/68/1 33/67/1 39/83/1 37/84/1
f 33/77/13 34/76/13 40/80/13 39/79/13
f 34/66/2 32/65/2 38/85/2 40/86/2
f 41/87/1 43/88/1 47/89/1 45/90/1
f 37/84/1 39/83/1 43/88/1 41/87/1
f 40/86/2 38/85/2 42/91/2 44/92/2
f 38/60/14 37/59/14 41/93/14 42/94/14
f 48/95/2 46/96/2 50/97/2 52/98/2
f 44/92/2 42/91/2 46/96/2 48/95/2
f 42/94/15 41/93/15 45/99/15 46/100/15
f 43/82/16 44/81/16 48/101/16 47/102/16
f 51/103/17 52/104/17 56/105/17 55/106/17
f 46/100/18 45/99/18 49/107/18 50/108/18
f 47/102/19 48/101/19 52/104/19 51/103/19
f 45/90/1 47/89/1 51/109/1 49/110/1
f 56/111/2 54/112/2 58/113/2 60/114/2
f 49/110/1 51/109/1 55/115/1 53/116/1
f 52/98/2 50/97/2 54/112/2 56/111/2
f 50/108/20 49/107/20 53/117/20 54/118/20
f 60/114/2 58/113/2 62/119/2 64/120/2
f 54/118/21 53/117/21 57/121/21 58/122/21
f 55/106/22 56/105/22 60/123/22 59/124/22
f 53/116/1 55/115/1 59/125/1 57/126/1
f 63/127/23 64/128/23 68/129/23 67/130/23
f 58/122/24 57/121/24 61/131/24 62/132/24
f 59/124/25 60/123/25 64/128/25 63/127/25
f 57/126/1 59/125/1 63/133/1 61/134/1
f 68/135/2 66/136/2 70/137/2 72/138/2
f 61/134/1 63/133/1 67/139/1 65/140/1
f 64/120/2 62/119/2 66/136/2 68/135/2
f 62/132/26 61/131/26 65/141/26 66/142/26
f 70/143/27 69/144/27 73/145/27 74/146/27
f 66/142/28 65/141/28 69/144/28 70/143/28
f 67/130/29 68/129/29 72/147/29 71/148/29
f 65/140/1 67/139/1 71/149/1 69/150/1
f 76/151/30 74/146/30 73/145/30 75/152/30
f 71/148/31 72/147/31 76/151/31 75/152/31
f 69/150/1 71/149/1 75/153/1 73/154/1
f 72/138/2 70/137/2 74/155/2 76/156/2
