# Blender v2.79 (sub 0) OBJ File: ''
# www.blender.org
mtllib bouclier.mtl
o Plane
v 0.221586 0.837580 0.041854
v 0.504024 0.837580 0.041854
v 0.504024 0.837580 0.011816
v 0.221586 0.837580 0.011816
v 0.693023 0.361896 0.041854
v 0.504024 0.175020 0.041854
v 0.504024 0.175020 0.011816
v 0.693023 0.361896 0.011816
v 0.786460 0.837580 0.041854
v 0.786460 0.837580 0.011816
v 0.315024 0.361896 0.041854
v 0.219463 0.557266 0.041854
v 0.219463 0.557266 0.011816
v 0.315024 0.361896 0.011816
v 0.788584 0.557266 0.041854
v 0.788584 0.557266 0.011816
v 0.247806 0.558112 0.011816
v 0.249718 0.810505 0.011816
v 0.249718 0.810505 0.023877
v 0.247806 0.558112 0.031715
v 0.504024 0.722585 0.015889
v 0.633014 0.397934 0.020062
v 0.633014 0.397808 0.020386
v 0.504024 0.722458 0.020386
v 0.375033 0.397934 0.020062
v 0.375033 0.397808 0.020386
v 0.504024 0.270393 0.022998
v 0.504024 0.270267 0.020386
v 0.221586 0.837580 0.071892
v 0.504024 0.837580 0.071892
v 0.693023 0.361896 0.071892
v 0.504024 0.175020 0.071892
v 0.786460 0.837580 0.071892
v 0.315024 0.361896 0.071892
v 0.219463 0.557266 0.071892
v 0.788584 0.557266 0.071892
v 0.247806 0.558112 0.071892
v 0.247806 0.558112 0.051993
v 0.249718 0.810505 0.059831
v 0.249718 0.810505 0.071892
v 0.504024 0.722585 0.067819
v 0.504024 0.722458 0.063322
v 0.633014 0.397808 0.063322
v 0.633014 0.397934 0.063646
v 0.375033 0.397934 0.063646
v 0.375033 0.397808 0.063322
v 0.504024 0.270393 0.060710
v 0.504024 0.270267 0.063322
v 0.760240 0.558112 0.011816
v 0.758328 0.810505 0.011816
v 0.674197 0.382201 0.011816
v 0.333849 0.382201 0.011816
v 0.504024 0.810505 0.011816
v 0.504024 0.213939 0.011816
v 0.760240 0.558112 0.031715
v 0.758328 0.810505 0.023877
v 0.504024 0.447085 -0.009806
v 0.758328 0.810505 0.071892
v 0.760240 0.558112 0.071892
v 0.674197 0.382201 0.071892
v 0.333849 0.382201 0.071892
v 0.504024 0.810505 0.071892
v 0.504024 0.213939 0.071892
v 0.758328 0.810505 0.059831
v 0.760240 0.558112 0.051993
v 0.504024 0.447085 0.093514
v 0.504024 0.447212 0.013274
v 0.504024 0.447212 0.011722
v 0.504024 0.447212 0.070434
v 0.504024 0.447212 0.071986
vt 0.143634 0.964511
vt 0.072684 0.634749
vt 0.106186 0.630992
vt 0.174520 0.930226
vt 0.158748 0.347112
vt 0.190138 0.376443
vt 0.948982 0.624629
vt 0.886689 0.954245
vt 0.855147 0.921002
vt 0.915619 0.621772
vt 0.857456 0.340925
vt 0.826743 0.370678
vt 0.516141 0.973450
vt 0.515815 0.945801
vt 0.507152 -0.001027
vt 0.507544 0.070359
vt 0.508157 0.171575
vt 0.255336 0.394853
vt 0.514302 0.801115
vt 0.843494 0.907438
vt 0.762003 0.390222
vt 0.136866 0.631665
vt 0.185902 0.916279
vt 0.885149 0.623267
vt 0.514174 0.787993
vt 0.267606 0.390897
vt 0.509907 0.455926
vt 0.748084 0.388232
vt 0.509117 0.179406
vt 0.143634 0.964511
vt 0.174520 0.930226
vt 0.106186 0.630992
vt 0.072684 0.634749
vt 0.190138 0.376443
vt 0.158748 0.347112
vt 0.948982 0.624629
vt 0.915619 0.621772
vt 0.855147 0.921002
vt 0.886689 0.954245
vt 0.857456 0.340925
vt 0.826743 0.370678
vt 0.516141 0.973450
vt 0.515815 0.945801
vt 0.507544 0.070359
vt 0.507152 -0.001027
vt 0.255336 0.394853
vt 0.508157 0.171575
vt 0.843494 0.907438
vt 0.514302 0.801115
vt 0.762003 0.390222
vt 0.185902 0.916279
vt 0.136866 0.631665
vt 0.885149 0.623267
vt 0.514174 0.787993
vt 0.509907 0.455926
vt 0.267606 0.390897
vt 0.748084 0.388232
vt 0.509117 0.179406
vt 0.000000 0.000000
vt 0.000000 0.000000
vt 0.000000 0.000000
vt 0.000000 0.000000
vt 0.000000 0.000000
vt 0.000000 0.000000
vt 0.000000 0.000000
vt 0.000000 0.000000
vt 0.000000 0.000000
vt 0.000000 0.000000
vt 0.000000 0.000000
vt 0.000000 0.000000
vt 0.000000 0.000000
vt 0.000000 0.000000
vt 0.000000 0.000000
vt 0.000000 0.000000
vt 0.903621 0.614986
vt 0.811087 0.882944
vt 0.799901 0.870065
vt 0.858683 0.614848
vt 0.686858 0.396758
vt 0.488881 0.756094
vt 0.489323 0.744426
vt 0.732568 0.392841
vt 0.000000 0.000000
vt 0.000000 0.000000
vt 0.000000 0.000000
vt 0.000000 0.000000
vt 0.205805 0.377912
vt 0.489592 0.177601
vt 0.489154 0.186285
vt 0.205364 0.377402
vt 0.000000 0.000000
vt 0.000000 0.000000
vt 0.000000 0.000000
vt 0.000000 0.000000
vt 0.000000 0.000000
vt 0.000000 0.000000
vt 0.000000 0.000000
vt 0.000000 0.000000
vt 0.903621 0.614986
vt 0.858683 0.614848
vt 0.799901 0.870065
vt 0.811087 0.882944
vt 0.686858 0.396758
vt 0.732568 0.392841
vt 0.489323 0.744426
vt 0.488881 0.756094
vt 0.000000 0.000000
vt 0.000000 0.000000
vt 0.000000 0.000000
vt 0.000000 0.000000
vt 0.205805 0.377912
vt 0.205364 0.377402
vt 0.489154 0.186285
vt 0.489592 0.177601
vn 0.0000 0.0000 -1.0000
vn -0.1714 0.1637 -0.9715
vn -0.0466 -0.1803 -0.9825
vn 0.1714 0.1637 -0.9715
vn -1.0000 -0.0076 0.0000
vn -0.4506 0.3149 -0.8354
vn -0.0716 0.0156 -0.9973
vn -0.0420 -0.0307 -0.9986
vn 0.0716 0.0156 -0.9973
vn 0.0420 -0.0307 -0.9986
vn 0.0466 -0.1803 -0.9825
vn 0.4506 0.3149 -0.8354
vn 0.2645 0.1051 -0.9586
vn -0.2645 0.1051 -0.9586
vn -0.1642 -0.1660 -0.9724
vn 0.1642 -0.1660 -0.9724
vn -0.0000 -0.0000 1.0000
vn -0.1714 0.1637 0.9715
vn -0.0466 -0.1803 0.9825
vn 0.1714 0.1637 0.9715
vn -0.4506 0.3149 0.8354
vn -0.0716 0.0156 0.9973
vn -0.0420 -0.0307 0.9986
vn 0.0716 0.0156 0.9973
vn 0.0420 -0.0307 0.9986
vn 0.0466 -0.1803 0.9825
vn 0.4506 0.3149 0.8354
vn 0.2645 0.1051 0.9586
vn -0.2645 0.1051 0.9586
vn -0.1642 -0.1660 0.9724
vn 0.1642 -0.1660 0.9724
vn 0.0000 1.0000 0.0000
vn 0.7031 -0.7111 0.0000
vn -0.8983 -0.4394 0.0000
vn -1.0000 0.0076 0.0000
vn 0.8983 -0.4394 0.0000
vn 1.0000 0.0076 0.0000
vn -0.7031 -0.7111 0.0000
vn 1.0000 -0.0076 0.0000
vn -0.9291 -0.3693 -0.0194
vn 0.9291 -0.3693 -0.0194
vn -0.7014 -0.7085 0.0782
vn 0.7014 -0.7085 0.0782
vn -0.9291 -0.3693 0.0194
vn 0.9291 -0.3693 0.0194
vn -0.7014 -0.7084 -0.0786
vn 0.7014 -0.7085 -0.0782
usemtl None_b.png
s 1
f 10/1/1 16/2/1 49/3/1 50/4/1
f 16/2/1 8/5/1 51/6/1 49/3/1
f 13/7/1 4/8/1 18/9/1 17/10/1
f 14/11/1 13/7/1 17/10/1 52/12/1
f 3/13/1 10/1/1 50/4/1 53/14/1
f 8/5/1 7/15/1 54/16/1 51/6/1
f 51/6/2 54/16/2 27/17/2 22/18/2
f 18/9/3 53/14/3 21/19/3 19/20/3
f 54/16/4 52/12/4 25/21/4 27/17/4
f 50/4/5 49/3/5 55/22/5 56/23/5
f 49/3/6 51/6/6 22/18/6 55/22/6
f 7/15/1 14/11/1 52/12/1 54/16/1
f 4/8/1 3/13/1 53/14/1 18/9/1
f 25/21/7 20/24/7 21/19/7
f 19/20/8 21/19/8 20/24/8
f 22/18/9 21/19/9 55/22/9
f 56/23/10 55/22/10 21/19/10
f 53/14/11 50/4/11 56/23/11 21/19/11
f 52/12/12 17/10/12 20/24/12 25/21/12
f 24/25/13 23/26/13 57/27/13
f 26/28/14 24/25/14 57/27/14
f 28/29/15 26/28/15 57/27/15
f 23/26/16 28/29/16 57/27/16
f 33/30/17 58/31/17 59/32/17 36/33/17
f 36/33/17 59/32/17 60/34/17 31/35/17
f 35/36/17 37/37/17 40/38/17 29/39/17
f 34/40/17 61/41/17 37/37/17 35/36/17
f 30/42/17 62/43/17 58/31/17 33/30/17
f 31/35/17 60/34/17 63/44/17 32/45/17
f 60/34/18 44/46/18 47/47/18 63/44/18
f 40/38/19 39/48/19 41/49/19 62/43/19
f 63/44/20 47/47/20 45/50/20 61/41/20
f 58/31/5 64/51/5 65/52/5 59/32/5
f 59/32/21 65/52/21 44/46/21 60/34/21
f 32/45/17 63/44/17 61/41/17 34/40/17
f 29/39/17 40/38/17 62/43/17 30/42/17
f 45/50/22 41/49/22 38/53/22
f 39/48/23 38/53/23 41/49/23
f 44/46/24 65/52/24 41/49/24
f 64/51/25 41/49/25 65/52/25
f 62/43/26 41/49/26 64/51/26 58/31/26
f 61/41/27 45/50/27 38/53/27 37/37/27
f 42/54/28 66/55/28 43/56/28
f 46/57/29 66/55/29 42/54/29
f 48/58/30 66/55/30 46/57/30
f 43/56/31 66/55/31 48/58/31
usemtl None
f 1/59/32 2/60/32 3/61/32 4/62/32
f 5/63/33 6/64/33 7/65/33 8/66/33
f 2/60/32 9/67/32 10/68/32 3/61/32
f 11/69/34 12/70/34 13/71/34 14/72/34
f 12/70/35 1/59/35 4/62/35 13/71/35
f 15/73/36 5/63/36 8/66/36 16/74/36
f 9/67/37 15/73/37 16/74/37 10/68/37
f 6/64/38 11/69/38 14/72/38 7/65/38
f 17/75/39 18/76/39 19/77/39 20/78/39
f 21/19/40 22/18/40 23/26/40 24/25/40
f 25/79/41 21/80/41 24/81/41 26/82/41
f 27/83/42 25/84/42 26/85/42 28/86/42
f 22/87/43 27/88/43 28/89/43 23/90/43
f 11/69/1 2/60/1 6/64/1
f 11/69/1 12/70/1 2/60/1
f 1/59/1 2/60/1 12/70/1
f 5/63/1 6/64/1 2/60/1
f 5/63/1 2/60/1 15/73/1
f 9/67/1 15/73/1 2/60/1
f 1/59/32 29/91/32 30/92/32 2/60/32
f 5/63/33 31/93/33 32/94/33 6/64/33
f 2/60/32 30/92/32 33/95/32 9/67/32
f 11/69/34 34/96/34 35/97/34 12/70/34
f 12/70/35 35/97/35 29/91/35 1/59/35
f 15/73/36 36/98/36 31/93/36 5/63/36
f 9/67/37 33/95/37 36/98/37 15/73/37
f 6/64/38 32/94/38 34/96/38 11/69/38
f 37/99/39 38/100/39 39/101/39 40/102/39
f 41/49/44 42/54/44 43/56/44 44/46/44
f 45/103/45 46/104/45 42/105/45 41/106/45
f 47/107/46 48/108/46 46/109/46 45/110/46
f 44/111/47 43/112/47 48/113/47 47/114/47
l 67 68
l 57 67
l 66 69
l 69 70
