# Blender v2.79 (sub 0) OBJ File: ''
# www.blender.org
mtllib box.mtl
o Cube.001
v 6.141383 9.548105 -6.141382
v 6.141383 9.548105 6.141384
v 6.141382 -2.734661 6.141382
v 6.141382 -2.734658 -6.141385
v -6.141382 9.548109 -6.141378
v -6.141383 -2.734659 -6.141383
v -6.141383 -2.734662 6.141380
v -6.141382 9.548102 6.141387
vt 0.730718 0.595027
vt 0.587548 0.595027
vt 0.587548 0.800263
vt 0.730718 0.800263
vt 0.577996 0.818955
vt 0.576798 0.548822
vt 0.388357 0.551465
vt 0.389555 0.821598
vt 0.012674 0.826883
vt 0.201115 0.824241
vt 0.199917 0.554107
vt 0.011476 0.556750
vt 0.557241 0.428500
vt 0.837262 0.428500
vt 0.837262 0.027086
vt 0.557241 0.027086
vt 0.766436 0.816312
vt 0.765239 0.546179
vn -0.0000 -1.0000 -0.0000
vn -1.0000 0.0000 0.0000
vn 1.0000 0.0000 -0.0000
vn 0.0000 0.0000 -1.0000
vn -0.0000 1.0000 0.0000
vn 0.0000 -0.0000 1.0000
usemtl Material_cuisine.jpg
s 1
f 1/1/1 2/2/1 8/3/1 5/4/1
usemtl Material.001
f 1/5/2 4/6/2 3/7/2 2/8/2
f 5/9/3 8/10/3 7/11/3 6/12/3
f 2/8/4 3/7/4 7/11/4 8/10/4
f 3/13/5 4/14/5 6/15/5 7/16/5
f 5/17/6 6/18/6 4/6/6 1/5/6
