# Blender v2.79 (sub 0) OBJ File: ''
# www.blender.org
mtllib sky.mtl
o Cube_Cube.001
v 5.342620 -0.731917 5.342621
v -5.342621 -0.731916 5.342621
v -5.342621 -0.731916 -5.342621
v 5.342620 -0.731917 -5.342621
v -5.342620 9.953325 -5.342620
v 5.342621 9.953325 -5.342620
v -5.342620 9.953325 5.342621
v 5.342621 9.953325 5.342621
vt 0.525926 0.347816
vt 0.754387 0.347468
vt 0.753938 0.054564
vt 0.525477 0.054912
vt 0.754836 0.640372
vt 0.983297 0.640024
vt 0.982849 0.347120
vt 0.526375 0.640720
vt 0.526824 0.933624
vt 0.755285 0.933276
vt 0.297464 0.348164
vt 0.297913 0.641068
vt 0.069452 0.641416
vt 0.069003 0.348512
vn 0.0000 1.0000 0.0000
vn 0.0000 -0.0000 1.0000
vn 0.0000 -1.0000 0.0000
vn 0.0000 0.0000 -1.0000
vn -1.0000 0.0000 0.0000
vn 1.0000 -0.0000 -0.0000
usemtl None
s 1
f 1/1/1 4/2/1 3/3/1 2/4/1
f 4/2/2 6/5/2 5/6/2 3/7/2
f 6/5/3 8/8/3 7/9/3 5/10/3
f 8/8/4 1/1/4 2/11/4 7/12/4
f 4/2/5 1/1/5 8/8/5 6/5/5
f 5/13/6 7/12/6 2/11/6 3/14/6
