# Blender v2.79 (sub 0) OBJ File: ''
# www.blender.org
mtllib underObstacle.mtl
o Cube.003
v -0.166667 -0.100000 0.348751
v -0.166667 -0.100000 0.500000
v -0.500000 -0.100000 0.500000
v -0.500000 -0.100000 0.348751
v -0.166667 0.100000 0.348751
v -0.500000 0.100000 0.348751
v -0.500000 0.100000 0.500000
v -0.166667 0.100000 0.500000
v 0.500000 -0.100000 0.348751
v 0.500000 0.100000 0.348752
v 0.500000 0.100000 0.500000
v 0.500000 -0.100000 0.500000
v 0.166667 0.664204 0.348752
v 0.166667 0.483287 0.348752
v 0.166667 0.483287 0.000000
v 0.166667 0.664204 0.000000
v 0.166666 0.100000 0.500000
v 0.166667 -0.100000 0.500000
v 0.166667 0.100000 0.348752
v -0.166667 0.483287 0.348751
v 0.166667 -0.100000 0.348751
v -0.166667 0.483287 0.000000
v 0.166667 -0.100000 -0.000000
v -0.166667 -0.100000 -0.000000
v 0.500000 -0.100000 -0.000000
v 0.166667 0.100000 0.000000
v -0.166667 0.100000 0.000000
v 0.500000 0.100000 0.000000
v -0.166667 0.664204 0.348751
v -0.166667 0.664204 0.500000
v 0.166666 0.664204 0.500000
v -0.166667 0.664204 0.000000
v -0.500000 0.100000 0.000000
v -0.500000 -0.100000 -0.000000
v 0.166666 0.483287 0.500000
v -0.166667 0.483287 0.500000
v -0.166667 -0.100000 -0.348751
v -0.500000 -0.100000 -0.348751
v -0.500000 -0.100000 -0.500000
v -0.166667 -0.100000 -0.500000
v -0.166667 0.100000 -0.348751
v -0.166667 0.100000 -0.500000
v -0.500000 0.100000 -0.500000
v -0.500000 0.100000 -0.348751
v 0.500000 -0.100000 -0.348751
v 0.500000 -0.100000 -0.500000
v 0.500000 0.100000 -0.500000
v 0.500000 0.100000 -0.348752
v 0.166667 0.664204 -0.348752
v 0.166667 0.483287 -0.348752
v 0.166667 -0.100000 -0.500000
v 0.166666 0.100000 -0.500000
v 0.166667 0.100000 -0.348752
v -0.166667 0.483287 -0.348751
v 0.166667 -0.100000 -0.348751
v 0.166666 0.664204 -0.500000
v -0.166667 0.664204 -0.500000
v -0.166667 0.664204 -0.348751
v -0.166667 0.483287 -0.500000
v 0.166666 0.483287 -0.500000
vn 0.0000 -1.0000 -0.0000
vn -0.0000 1.0000 0.0000
vn 1.0000 0.0000 0.0000
vn 0.0000 0.0000 1.0000
vn 0.0000 0.0000 -1.0000
vn -1.0000 0.0000 0.0000
usemtl Material.001
s 1
f 1//1 2//1 3//1 4//1
f 5//2 6//2 7//2 8//2
f 9//3 10//3 11//3 12//3
f 2//4 8//4 7//4 3//4
f 13//3 14//3 15//3 16//3
f 12//4 11//4 17//4 18//4
f 18//4 17//4 8//4 2//4
f 10//2 19//2 17//2 11//2
f 19//5 5//5 20//5 14//5
f 9//1 12//1 18//1 21//1
f 21//1 18//1 2//1 1//1
f 14//1 20//1 22//1 15//1
f 23//1 21//1 1//1 24//1
f 25//1 9//1 21//1 23//1
f 26//2 27//2 5//2 19//2
f 28//2 26//2 19//2 10//2
f 3//6 7//6 6//6 4//6
f 13//2 29//2 30//2 31//2
f 25//3 28//3 10//3 9//3
f 20//6 29//6 32//6 22//6
f 27//2 33//2 6//2 5//2
f 24//1 1//1 4//1 34//1
f 29//2 13//2 16//2 32//2
f 8//4 17//4 35//4 36//4
f 35//3 14//3 13//3 31//3
f 4//6 6//6 33//6 34//6
f 17//3 19//3 14//3 35//3
f 5//6 8//6 36//6 20//6
f 20//6 36//6 30//6 29//6
f 36//4 35//4 31//4 30//4
f 37//1 38//1 39//1 40//1
f 41//2 42//2 43//2 44//2
f 45//3 46//3 47//3 48//3
f 40//5 39//5 43//5 42//5
f 49//3 16//3 15//3 50//3
f 46//5 51//5 52//5 47//5
f 51//5 40//5 42//5 52//5
f 48//2 47//2 52//2 53//2
f 53//4 50//4 54//4 41//4
f 45//1 55//1 51//1 46//1
f 55//1 37//1 40//1 51//1
f 50//1 15//1 22//1 54//1
f 23//1 24//1 37//1 55//1
f 25//1 23//1 55//1 45//1
f 26//2 53//2 41//2 27//2
f 28//2 48//2 53//2 26//2
f 39//6 38//6 44//6 43//6
f 49//2 56//2 57//2 58//2
f 25//3 45//3 48//3 28//3
f 54//6 22//6 32//6 58//6
f 27//2 41//2 44//2 33//2
f 24//1 34//1 38//1 37//1
f 58//2 32//2 16//2 49//2
f 42//5 59//5 60//5 52//5
f 60//3 56//3 49//3 50//3
f 38//6 34//6 33//6 44//6
f 52//3 60//3 50//3 53//3
f 41//6 54//6 59//6 42//6
f 54//6 58//6 57//6 59//6
f 59//5 57//5 56//5 60//5
